<?xml version="1.0" encoding="UTF-8"?>
<!DOCTYPE svg PUBLIC "-//W3C//DTD SVG 1.1//EN" "http://www.w3.org/Graphics/SVG/1.1/DTD/svg11.dtd">
<svg xmlns="http://www.w3.org/2000/svg" version="1.1" width="460px" height="460px" style="shape-rendering:geometricPrecision; text-rendering:geometricPrecision; image-rendering:optimizeQuality; fill-rule:evenodd; clip-rule:evenodd" xmlns:xlink="http://www.w3.org/1999/xlink">
<g><path fill="#647f27" fill-opacity="0.957" d="M 356.71,158.85 c 3.53,0.85 7.09,1.6 10.67,2.26 c 2.43,0.49 3.28,1.92 2.56,4.29 c -1.83,4.52 -3.64,9.06 -5.42,13.61 c -1.1,2.7 -0.26,4.48 2.52,5.36 c 3.65,1.41 7.34,2.7 11.08,3.87 c 2.32,1.09 5.5,1.81 3.64,5.11 c -2.35,4.59 -4.78,9.14 -7.28,13.65 c -1.23,2.74 0.56,3.28 2.57,4.42 c 2.32,1.67 14.71,6.48 15.5,8.13 c -1.14,1.6 -2.17,3.26 -3.11,4.98 c -1.08,-1.08 -1.97,-2.31 -2.66,-3.68 c -3.49,-3.75 -7.71,-6.32 -12.66,-7.71 c -0.39,-0.65 -0.88,-1.22 -1.47,-1.7 c 0.21,-0.27 0.38,-0.57 0.5,-0.9 c -2.14,-5.96 1.63,-10.53 4.66,-15.23 c 1.18,-2.6 -0.68,-3.69 -2.5,-5.07 c -3.51,-1.51 -7.04,-2.97 -10.61,-4.37 c -3.38,-1.91 -4.28,-4.68 -2.69,-8.3 c 1.59,-3.47 3.3,-6.87 5.16,-10.2 c -0.32,-1.13 -3.2,-2.01 -4.11,-2.94 c -1.91,-1.46 -3.81,-2.93 -5.69,-4.39 c -0.45,-0.28 -0.67,-0.67 -0.66,-1.19 Z M 389.69,297.58 c 2.75,3.79 9.45,11.75 10.46,15.95 c -0.07,0.27 -0.15,0.54 -0.22,0.81 c -3.35,2.45 -6.88,4.59 -10.62,6.41 c -0.15,-0.92 -0.03,-1.8 0.38,-2.62 c 1.78,-0.95 1.52,-1.2 2.34,-2.66 c 2.2,-0.13 3.27,-1.33 3.19,-3.6 c 0.22,-3.95 -5.78,-8.4 -7.28,-12.13 c -0.57,-1.79 -0.75,-3.63 -0.52,-5.52 c 0.49,0.96 0.8,1.99 0.93,3.08 c 0.4,0.32 0.84,0.41 1.34,0.28 Z"/></g>
<g><path fill="#617b27" fill-opacity="0.922" d="M 160.53,416.2 c 0.51,-0.1 0.97,0.01 1.38,0.32 c 2.6,2.95 4.18,6.37 4.74,10.26 c 0.22,0.18 0.43,0.36 0.65,0.54 c 2.07,0.04 4.03,-0.43 5.87,-1.4 c 3.29,-1.63 6.5,-3.39 9.64,-5.29 c 2.48,-0.93 4.61,-0.42 6.38,1.52 c 0.48,0.95 0.87,1.94 1.18,2.97 c 1.07,0.37 1.58,1.14 1.54,2.3 c 0.88,1.78 1.83,3.51 2.86,5.21 c 3.53,3.79 7.36,3.21 10.85,-0.13 c 0.91,-0.18 1.74,-0.51 2.49,-1 c -0.07,-1.69 0.68,-2.91 2.26,-3.64 c 2.26,-1.49 4.66,-1.72 7.18,-0.7 c 0.74,0.56 1.52,1.03 2.35,1.44 c 1.23,1.41 2.48,2.84 3.74,4.28 c 0.39,0.99 0.88,1.9 1.48,2.74 c 1.47,0.81 3,1.51 4.61,2.07 c 1.21,0.16 2.34,0.98 3.48,0.17 c 0.67,-3.3 2.49,-5.98 6.2,-5.86 c 0.18,-0.18 0.36,-0.37 0.54,-0.55 c 0.25,-2.97 -0.56,-2.91 2.48,-3.34 c 0.88,-0.95 1.76,-0.91 2.65,0.1 c -4.89,4.17 -8.64,10.79 -13.73,14.4 c -0.73,0.11 -1.35,-0.09 -1.88,-0.6 c -3.99,-3.49 -7.59,-8.34 -11.05,-11.94 c -3.27,-4.11 -6.2,-0.2 -8.83,2.1 c -3.3,2.25 -6.52,4.62 -9.67,7.09 c -1.16,0.78 -2.22,0.65 -3.18,-0.38 c -3.25,-5.19 -6.45,-10.42 -9.59,-15.67 c -0.9,-0.85 -1.94,-1.09 -3.14,-0.72 c -5.11,3.56 -10.41,5.48 -15.91,8.29 c -0.75,0.25 -1.45,0.16 -2.11,-0.28 c -1.21,-2.23 -2.24,-4.55 -3.1,-6.96 c -0.87,-2.42 -1.66,-4.87 -2.36,-7.34 Z"/></g>
<g><path fill="#8fb440" fill-opacity="0.957" d="M 91.89,165.91 c 0.49,-0.11 0.89,0.05 1.19,0.45 c 2.05,2.57 3.88,5.3 5.47,8.18 c 1.8,3.95 0.92,5.92 1.06,9.77 c -3.56,3.7 -10.84,2.25 -14,6.66 c -1.54,2.81 -1.5,5.61 0.11,8.39 c 1.59,2.48 3.18,4.95 4.75,7.41 c -0.95,10.05 -19.2,9.06 -17.5,17.76 c -0.04,0.55 -0.34,0.8 -0.87,0.78 c -0.09,-0.39 -0.18,-0.77 -0.27,-1.15 c -0.29,-0.87 -0.7,-1.66 -1.24,-2.39 c -1.14,-0.68 -1.55,-1.63 -1.23,-2.86 c 3.38,-1.95 6.89,-3.62 10.54,-4.99 c 0.71,-0.29 1.4,-0.64 2.06,-1.02 c 1.61,-0.88 3.19,-1.73 4.74,-2.55 c 1.23,-1.11 1.25,-2.29 0.05,-3.53 c -2.61,-2.96 -4.62,-10.49 -7.11,-12.73 c 0.11,-1.47 0.24,-2.94 0.4,-4.42 c 1.4,-0.11 9.23,-3.72 11.39,-4.24 c 1.58,-0.39 3.12,-0.91 4.61,-1.58 c 1.5,-0.52 1.99,-1.57 1.46,-3.13 c -1.98,-4.9 -3.85,-9.83 -5.61,-14.81 Z"/></g>
<g><path fill="#8db43d" fill-opacity="0.969" d="M 168.88,77.83 c 0.93,0.27 1.63,0.84 2.11,1.7 c 0.9,0.33 1.79,0.67 2.66,1.02 c -1.3,1.27 -2.41,2.68 -3.34,4.26 c -1.4,2.94 -2.75,5.88 -4.05,8.84 c -0.92,-0.1 -1.83,-0.09 -2.75,0.04 c -1.4,0.31 -2.78,0.63 -4.13,0.95 c -1.18,-0.42 -2.39,-0.8 -3.61,-1.16 c -6.31,-1.33 -8.12,1.15 -9.7,6.86 c -0.56,3.68 -0.65,7.36 -0.27,11.04 c -0.83,1.16 -2.28,-0.76 -3.73,0.49 c -0.42,-0.44 -0.84,-0.89 -1.24,-1.35 c 0.95,-0.88 3.28,-0.23 3.04,-1.94 c -0.3,-6.34 -0.26,-12.68 0.12,-19 c 1.01,-0.86 2.18,-1.12 3.5,-0.76 c 4.03,0.61 8.04,1.27 12.05,1.98 c 1.57,0.41 3.02,1.42 4.74,0.93 c 2.6,-3.01 2.58,-10.03 4.6,-13.9 Z"/></g>
<g><path fill="#607b27" fill-opacity="0.906" d="M 388.3,321.3 c -1.5,0.97 -6.23,2.71 -5.7,5.02 c 1.73,5.16 4.8,9.93 6.25,15.33 c 1.28,3.54 1.24,3.97 -2.39,5.19 c -4.27,1.44 -12.46,2.72 -15.92,5.12 c -1.3,2.84 0.4,7.83 0.84,10.83 c -1.82,-0.33 -1.97,-1.75 -3.11,-2.88 c 0.05,-3.42 0.05,-6.84 0.01,-10.26 c 0.7,-0.26 1.45,-0.31 2.25,-0.16 c 2.58,-1.62 8.74,-3.33 11.29,-3.95 c 3.92,1 5.13,-2.11 4.89,-5.31 c -0.25,-1.47 -1.55,-1.01 -2.35,-1.85 c 0.12,-1.64 0.17,-3.28 0.12,-4.92 c -1.39,-2.16 -3.25,-3.25 -4.07,-5.83 c 0.5,-1.28 0.45,-6.44 1.5,-7.04 c 1.8,-0.45 5.78,-1.86 6.39,0.71 Z"/></g>
<g><path fill="#657f25" fill-opacity="0.961" d="M 368.27,359.91 c 1.14,1.13 1.29,2.55 3.11,2.88 c 1.1,3.06 1.51,6.19 1.23,9.4 c -1.37,1.45 -3.08,2.18 -5.12,2.17 c -4.27,0.54 -11.14,0.18 -14.97,1.75 c -3.58,3.93 1.04,14.93 -2.54,20.31 c -1.4,0.65 -2.89,0.93 -4.47,0.82 c -5.02,-0.63 -10.04,-1.23 -15.06,-1.8 c -1.11,0.07 -2.06,2.17 -2.29,3.08 c -1.38,5.58 -2.47,11.21 -3.27,16.91 c -0.69,1.32 -1.75,1.77 -3.19,1.36 c -5.23,-1.8 -10.5,-3.47 -15.81,-5.02 c -1.42,-0.54 -2.58,-0.24 -3.48,0.91 c -1.38,5.99 -4.86,10.88 -6.44,16.78 c -0.6,1.36 -1.61,1.81 -3.05,1.34 c -3.82,-2.23 -10.91,-5.82 -15,-7.74 c -0.04,-0.59 -0.35,-0.85 -0.95,-0.75 c -0.61,0.02 -1.22,0.04 -1.83,0.06 c -0.38,-1.3 0.09,-1.78 1.39,-1.44 c 4.01,1.52 8.01,3.09 12.01,4.69 c 8.89,2.42 8.8,-9.39 12.2,-14.63 c 0.76,-1.81 1.54,-1.13 2.7,-2.32 c 0.24,0.35 0.54,0.64 0.9,0.87 c 5.12,0.05 10.17,2.25 15.2,3.08 c 3.9,-3.4 5.67,-10.07 6.9,-14.97 c 1.39,-6.77 9.44,-4.5 14.1,-3.37 c 1.78,0.03 3.54,0.12 5.28,0.27 c 1.42,-0.62 0.85,-3.71 1.53,-5.07 c -0.01,-3.66 0.17,-7.32 0.53,-10.96 c 0.69,-3.18 1.16,-4.11 4.17,-5.3 c 3.73,-0.22 7.43,-0.68 11.09,-1.39 c 7.29,-1.82 5.34,-6.68 5.13,-11.92 Z"/></g>
<g><path fill="#8fb143" fill-opacity="0.937" d="M 70.71,268.71 c 0.87,0.5 1.13,1.25 0.78,2.24 c -0.76,0.65 -1.59,1.2 -2.49,1.67 c -0.95,1.02 -1.88,2.07 -2.8,3.13 c -1.7,0.78 -2,0.67 -2.42,2.59 c -1.06,0.88 -2.44,1.35 -2.01,3.1 c 1.27,3 3.2,3.13 5.67,4.52 c 1.12,1.64 2.08,3.36 2.88,5.15 c 1.1,0.56 2.12,1.22 3.09,1.98 c 0.25,1.24 0.73,2.39 1.41,3.44 c -0.62,0.93 -1.35,1.81 -2.19,2.63 c -0.55,2.17 -1.02,1.93 -2.13,3.03 c 0.24,1.91 -0.41,1.53 -1.8,2.26 c -0.28,1.07 -0.43,2.18 -0.45,3.31 c -0.32,0.37 -0.7,0.65 -1.15,0.85 c -1.28,2.1 -0.47,1.66 -2.82,2.14 c -0.01,1.75 -0.01,3.51 -0.01,5.29 c -2.57,-0.24 -3.5,-1.62 -2.77,-4.13 c 3.53,-4.74 6.9,-9.58 10.12,-14.52 c 0.68,-2.58 -3.45,-7.08 -5.8,-7.31 c -0.17,-1.11 -3.68,-4.56 -4.9,-4.79 c -1.02,-1.23 -2.17,-2.3 -3.46,-3.24 c -0.43,-0.71 -0.43,-1.42 -0.01,-2.14 c 4.46,-3.69 8.88,-7.43 13.26,-11.2 Z"/></g>
<g><path fill="#627f23" fill-opacity="0.953" d="M 388.58,226.19 c -1.66,3.21 -3.54,6.29 -5.64,9.24 c -0.91,1.15 -0.79,2.13 0.35,2.93 c 4.54,2.48 9.09,4.94 13.66,7.37 c 0.78,0.71 2.81,1.62 2.7,2.85 c -0.15,3.08 -5.37,7.38 -6.52,10.6 c -1.52,-3.57 3.58,-8.09 2.08,-11.11 c -1.51,-1.07 -3.09,-2.09 -4.73,-3.05 c -1.93,-1.2 -3.94,-2.23 -6.02,-3.1 c -0.17,-2.75 -2.03,-1.12 -3.84,-2.07 c -0.1,-0.88 -0.42,-1.67 -0.96,-2.36 c 0.31,-0.24 0.57,-0.53 0.79,-0.85 c 0.31,-3.61 1.31,-7.02 3,-10.24 c 0.69,1.69 1.57,1.76 2.65,0.22 c 0.47,-1.71 1.3,-1.85 2.48,-0.43 Z"/></g>
<g><path fill="#855e37" d="M 226.11,24.85 c 2.94,1.35 5.89,1.37 8.86,0.08 c -2.02,7.84 -0.14,20.41 -1.12,29.13 c -0.47,-0.24 -0.84,-0.6 -1.1,-1.06 c -3.22,-6.63 -1.13,-13.19 -1.64,-20.35 c 0.8,-1.02 2.4,-1.17 1.69,-2.93 c -0.54,-1.17 -1.01,-2.36 -1.39,-3.55 c -0.89,-0.34 -6.23,0.8 -5.3,-1.32 Z"/></g>
<g><path fill="#c3a57a" fill-opacity="0.988" stroke="#c3a57a" stroke-width="0.5" stroke-opacity="0.988" d="M 239.71,17.95 c 0.68,1.18 0.47,2.22 -0.63,3.12 c -1.03,1.65 -2.4,2.94 -4.11,3.86 c -2.97,1.29 -5.92,1.27 -8.86,-0.08 c -1.8,-1.69 -3.78,-3.18 -5.94,-4.47 c -0.35,-0.76 -0.42,-1.55 -0.21,-2.37 c 0.14,-0.79 0.61,-1.12 1.42,-0.98 c 3.58,1.98 13.86,0.51 18.33,0.92 Z"/></g>
<g><path fill="#79671e" d="M 232.75,53 c 0.26,0.46 0.63,0.82 1.1,1.06 c 0.13,2.08 0.67,4.05 1.6,5.91 c 0.85,1.15 2.53,4.47 4.22,4.09 c 0.51,1.02 0.58,2.07 0.23,3.15 c -2.99,-3.22 -5.86,-6.55 -8.6,-9.98 c -1.37,-0.27 -5.24,4.14 -6.16,5.22 c -1.01,-0.66 -1.34,-1.6 -1,-2.82 c 0.06,-5.43 3.91,-6.71 8.61,-6.63 Z"/></g>
<g><path fill="#885a2d" fill-opacity="0.988" stroke="#885a2d" stroke-width="0.5" stroke-opacity="0.988" d="M 219.96,18.01 c -0.21,0.82 -0.14,1.61 0.21,2.37 c 2.16,1.29 4.14,2.78 5.94,4.47 c -0.93,2.12 4.41,0.98 5.3,1.32 c 0.38,1.19 0.85,2.38 1.39,3.55 c 0.71,1.76 -0.89,1.91 -1.69,2.93 c 0.51,7.16 -1.58,13.72 1.64,20.35 c -4.7,-0.08 -8.55,1.2 -8.61,6.63 c -0.34,1.22 -0.01,2.16 1,2.82 c -0.43,0.47 -0.85,0.94 -1.28,1.41 c -1.67,2.03 -3.31,4.06 -4.94,6.11 c 0.32,-15.82 0.36,-31.64 0.13,-47.47 c 0.37,-0.74 -0.54,-4.84 0.91,-4.49 Z"/></g>
<g><path fill="#8cae41" fill-opacity="0.941" d="M 218.92,69.97 c 1.63,-2.05 3.27,-4.08 4.94,-6.11 c 0.13,1.66 1.12,4.94 -1.51,4.96 c -1.05,1.32 -1.98,2.74 -2.78,4.25 c -0.83,0.41 -1.61,0.93 -2.33,1.55 c -1.63,0.42 -3.06,0.06 -4.3,-1.08 c -0.98,-2 -0.38,-2.36 -2.84,-2.21 c -1.01,-1.03 -1.92,-2.14 -2.72,-3.34 c -0.9,-0.12 -1.8,-0.21 -2.71,-0.26 c -0.99,-0.86 -2.03,-1.65 -3.11,-2.37 c -1.5,0.01 -2.84,2.83 -4.09,3.66 c -1.26,2.07 -2.48,4.16 -3.65,6.27 c -0.5,0.46 -1.1,0.68 -1.79,0.66 c 0.94,-4.83 4.66,-9.4 6.55,-13.99 c 0.98,-1.24 2.13,-1.38 3.44,-0.43 c 3.51,2.83 7.02,5.64 10.54,8.43 c 1.85,1.46 5.18,3.19 6.36,0.01 Z M 140.83,110.52 c 0.4,0.46 0.82,0.91 1.24,1.35 c -4.86,0.21 -9.71,0.28 -14.57,0.22 c -0.59,-0.08 -1.09,0.1 -1.48,0.54 c -0.4,2.05 -1.41,8.12 -0.24,9.78 c 0.56,1.14 1.25,2.17 2.07,3.1 c 0.11,2.24 0.03,4.47 -0.24,6.67 c -1.2,0.83 -2.24,1.8 -3.12,2.9 c -1.72,0.06 -3.4,0.34 -5.04,0.82 c -1.91,-0.52 -2.8,-1.1 -4.2,0.72 c -4.18,-1.14 -6.46,0.48 -6.85,4.86 c 0.07,1.73 0.35,3.43 0.85,5.1 c -0.1,0.61 -0.35,1.16 -0.73,1.65 c -1.03,-3.29 -2.09,-6.57 -3.18,-9.83 c -0.18,-0.81 -0.06,-1.56 0.37,-2.24 c 3.2,-1.71 11.53,-2.42 15.63,-3.41 c 1.25,-0.27 2.39,-0.73 3.43,-1.4 c 0.58,-4.04 -0.91,-9.19 -0.85,-12.85 c -0.31,-2.15 -1.82,-5.67 -0.3,-7.55 c 5.72,-0.38 11.46,-0.53 17.21,-0.43 Z"/></g>
<g><path fill="#99b03c" fill-opacity="0.996" d="M 239.9,67.21 c 0.81,1.03 1.77,1.88 2.88,2.58 c 0.12,0.76 0.19,1.52 0.2,2.29 c -0.79,0.23 -1.58,0.21 -2.36,-0.06 c -0.43,-0.93 -0.9,-1.83 -1.41,-2.7 c -3.93,-0.61 -3.64,-1.61 -5.08,-4.99 c -1.12,-0.78 -2.8,-3.35 -4.34,-2.1 c -0.43,0.56 -0.9,1.07 -1.43,1.54 c -1.49,0.22 -3,0.25 -4.5,0.09 c 0.43,-0.47 0.85,-0.94 1.28,-1.41 c 0.92,-1.08 4.79,-5.49 6.16,-5.22 c 2.74,3.43 5.61,6.76 8.6,9.98 Z"/></g>
<g><path fill="#5d732c" fill-opacity="0.863" d="M 90.71,358.88 c 1.25,1.26 0.72,3.98 1.05,5.61 c -0.49,1.29 -0.85,2.62 -1.1,3.99 c -0.37,3.05 2.09,3.99 4.67,3.9 c 0.7,0.34 1.41,0.63 2.15,0.84 c 3.09,0.05 6.16,0.13 9.22,0.26 c -1.29,-0.03 -2.24,0.5 -2.85,1.59 c -3.04,-0.22 -6.08,-0.36 -9.12,-0.42 c -1.9,-0.41 -3.79,-0.86 -5.66,-1.35 c -1.3,-1.87 0.8,-12.01 1.64,-14.42 Z"/></g>
<g><path fill="#618f05" d="M 95.92,359.96 c 0.57,3.29 1.4,6.52 2.5,9.67 c -1.55,1.02 -4.75,2.89 -5.41,-0.03 c -0.71,-3.89 -0.25,-7.62 1.38,-11.2 c 0.35,0.69 0.86,1.2 1.53,1.56 Z"/></g>
<g><path fill="#617f21" fill-opacity="0.937" d="M 317.12,93.98 c -0.36,5.41 0.95,10.54 1.2,15.77 c -0.05,0.69 0.1,1.34 0.43,1.94 c -1.05,0.04 -2.07,-0.16 -3.04,-0.58 c 1.61,-2.99 1.43,-3.35 -0.52,-5.81 c -0.11,-0.7 0.36,-2.76 -1.05,-2.3 c 0.96,-2.21 1.56,-4.51 1.81,-6.91 c -0.03,-0.94 0.36,-1.65 1.17,-2.11 Z"/></g>
<g><path fill="#8eb141" fill-opacity="0.957" d="M 317.12,93.98 c -0.81,0.46 -1.2,1.17 -1.17,2.11 c -2.28,1.28 -1.39,-0.08 -2.13,-1.94 c -5.26,-3.53 -8.95,-1.31 -14.45,-0.54 c -1.63,0.94 -0.21,1.17 -1.61,0.02 c -1.91,-0.39 -3.37,-1.44 -4.37,-3.14 c -1.73,-2.89 -3.18,-5.89 -4.35,-9.02 c -1.22,-0.8 -1.32,1.46 -1.52,2.1 c -2.84,-4.07 -0.29,-3.03 2.95,-3.67 c 0.7,-0.76 0.64,-1.49 -0.2,-2.17 c -1.82,-1.02 -3.75,-1.3 -5.79,-0.84 c -5.15,1.26 -10.37,4.36 -15.79,2.9 c -0.26,-1.01 -0.5,-2.04 -0.74,-3.1 c -1.24,-2.94 -2.86,-5.64 -4.88,-8.12 c -1.09,-1.32 -2.24,-2.55 -3.43,-3.69 c -3.8,2.8 -7.72,5.42 -11.75,7.87 c -1.26,0.21 -4.51,1.33 -4.91,-0.67 c 1.39,0.02 2.73,-0.22 4.01,-0.71 c 2.9,-3.59 7.82,-5.38 10.95,-8.92 c 1.28,-0.6 2.48,-1.31 3.61,-2.15 c 0.39,0.11 0.68,0.35 0.87,0.72 c 2.11,5.09 5.12,9.68 7.54,14.62 c 0.11,2.14 1.22,3.1 3.33,2.87 c 5.17,-2.04 10.27,-4.22 15.3,-6.56 c 1.79,-0.77 2.95,-0.25 3.48,1.56 c 0.64,4.98 3.25,11.01 3.26,15.83 c 0.98,2.32 2.68,3.09 5.11,2.32 c 3.96,-1.1 7.97,-1.97 12.02,-2.61 c 5.02,-0.61 5.25,0.09 4.66,4.93 Z"/></g>
<g><path fill="#86ad3c" fill-opacity="0.914" d="M 180.21,75.35 c 3.61,1.51 8.77,4.46 11.82,0.6 c 0.26,1.12 0.08,2.18 -0.54,3.18 c -3.28,1.21 -12.45,2.24 -11.28,-3.78 Z"/></g>
<g><path fill="#658221" fill-opacity="0.953" d="M 91.34,349.08 c 3.87,0.71 3.54,7.91 4.58,10.88 c -0.67,-0.36 -1.18,-0.87 -1.53,-1.56 c -1.63,3.58 -2.09,7.31 -1.38,11.2 c 0.66,2.92 3.86,1.05 5.41,0.03 c 0,1.12 0.31,2.14 0.93,3.06 c 2.35,-0.2 4.72,-0.39 7.1,-0.59 c 1.02,0.76 2.16,1.27 3.42,1.52 c 0.52,0.4 1.01,0.81 1.49,1.24 c 1.29,5.95 0.88,11.42 0.75,17.66 c -0.12,0.59 0.05,1.08 0.51,1.46 c 4.31,0.23 8.62,0.51 12.93,0.84 c 2.13,0.29 2.05,-1.52 3.12,-2.64 c 1.04,-0.59 4.13,1.96 5.18,2.43 c 0.22,0.74 0.58,1.41 1.06,1.99 c 1.16,0.36 3.28,1.08 2.85,2.72 c -0.68,2.27 -2.8,6.87 -0.28,8.52 c -0.08,0.91 0.13,1.72 0.62,2.44 c 2.56,0.52 5.05,1.25 7.47,2.18 c 1.28,-0.84 2.58,-1.67 3.92,-2.48 c 2.4,-1.46 13.27,-0.1 10.04,4.2 c -0.51,-1.58 -1.57,-2.47 -3.18,-2.68 c -5.73,1.61 -11.43,3.36 -17.08,5.27 c -3.5,1.18 -3.55,-4.74 -3.67,-6.79 c -0.65,-3.34 -1.33,-6.67 -2.04,-10 c -0.27,-2.09 -1.33,-3.59 -3.18,-4.49 c -4.65,0.35 -9.27,0.88 -13.88,1.59 c -1.39,-0.16 -4.67,0.51 -5.63,-0.64 c -0.76,-5.02 -0.27,-12.36 -0.35,-17.63 c -0.03,-0.29 -0.16,-0.49 -0.41,-0.61 c 0.93,-3.62 -4.22,-2.68 -6.26,-3.13 c 0.61,-1.09 1.56,-1.62 2.85,-1.59 c -3.06,-0.13 -6.13,-0.21 -9.22,-0.26 c -0.74,-0.21 -1.45,-0.5 -2.15,-0.84 c -2.58,0.09 -5.04,-0.85 -4.67,-3.9 c 0.25,-1.37 0.61,-2.7 1.1,-3.99 c -0.33,-1.63 0.2,-4.35 -1.05,-5.61 c 0.13,-0.66 0.3,-1.3 0.5,-1.94 c 1,-1.94 1.37,-5.57 -1.11,-6.55 c 0.42,-0.43 0.83,-0.86 1.24,-1.31 Z"/></g>
<g><path fill="#658c05" d="M 314.14,103 c 1.41,-0.46 0.94,1.6 1.05,2.3 c 1.95,2.46 2.13,2.82 0.52,5.81 c -4.76,0.1 -2.62,-5.55 -1.57,-8.11 Z"/></g>
<g><path fill="#7f9c3f" fill-opacity="0.827" d="M 109.79,156.91 c 0.18,0.99 -0.06,1.86 -0.7,2.61 c -3.06,0.82 -6.14,0.94 -9.24,0.37 c 3.25,-1.2 6.56,-2.19 9.94,-2.98 Z"/></g>
<g><path fill="#779b37" fill-opacity="0.663" d="M 67.83,258.26 c 0.57,0.21 1.07,0.52 1.52,0.93 c 0.93,1.62 2.03,3.12 3.29,4.5 c 0.38,0.78 1.11,3.58 -0.55,3.38 c 0.47,-4.11 -3.7,-5.12 -4.26,-8.81 Z"/></g>
<g><path fill="#728e2d" fill-opacity="0.663" d="M 71.05,242.24 c 0.1,1.93 -2.76,2.94 -4.31,2.64 c 0.44,-1.18 3.23,-2.02 4.31,-2.64 Z"/></g>
<g><path fill="#758c4b" fill-opacity="0.69" d="M 70.96,320.26 c 0.96,-0.13 1.93,-0.21 2.9,-0.24 c 0.39,0.73 0.74,1.49 1.03,2.27 c -1.43,-0.47 -2.74,-1.14 -3.93,-2.03 Z"/></g>
<g><path fill="#8dae46" fill-opacity="0.933" d="M 73.86,320.02 c 0.86,-0.29 1.7,-0.27 2.53,0.06 c 0.86,1.1 1.89,2.03 3.1,2.76 c 0.65,3.28 1.78,8.59 -1.66,10.71 c -0.13,1.17 -0.21,2.34 -0.25,3.52 c -0.89,1.36 -1.51,2.83 -1.85,4.41 c 0.05,2.78 1.48,4.16 4.27,4.16 c 1.06,1.5 6.9,0.68 8.52,1.48 c 0.86,0.75 1.8,1.41 2.82,1.96 c -0.41,0.45 -0.82,0.88 -1.24,1.31 c -1.37,-0.25 -2.74,-0.38 -4.13,-0.38 c -3.6,-1.72 -10.94,-2.47 -14.29,-4.79 c 0,-0.45 -0.01,-0.91 -0.01,-1.36 c 0.14,-4.2 3.84,-9.81 5.59,-13.68 c 0.74,-2.18 2.68,-4.61 0.24,-6.4 c -0.87,-0.51 -1.74,-1.01 -2.61,-1.49 c -0.29,-0.78 -0.64,-1.54 -1.03,-2.27 Z"/></g>
<g><path fill="#6e735a" fill-opacity="0.525" d="M 80.04,189.67 c -0.16,1.48 -0.29,2.95 -0.4,4.42 c -0.82,-1.21 -1.73,-3.9 0.4,-4.42 Z"/></g>
<g><path fill="#57711c" fill-opacity="0.396" d="M 73.75,227.68 c 0.93,0.53 1.27,1.32 1.01,2.37 c -0.69,-0.42 -1.72,-1.58 -1.01,-2.37 Z"/></g>
<g><path fill="#5f7043" fill-opacity="0.475" d="M 71.67,343.86 c 0,0.45 0.01,0.91 0.01,1.36 c -0.67,-0.42 -0.67,-0.88 -0.01,-1.36 Z"/></g>
<g><path fill="#8ec21f" stroke="#8ec21f" stroke-width="0.5" d="M 242.98,72.08 c 0.4,2 3.65,0.88 4.91,0.67 c 4.03,-2.45 7.95,-5.07 11.75,-7.87 c 1.19,1.14 2.34,2.37 3.43,3.69 c 2.02,2.48 3.64,5.18 4.88,8.12 c 0.24,1.06 0.48,2.09 0.74,3.1 c 5.42,1.46 10.64,-1.64 15.79,-2.9 c 2.04,-0.46 3.97,-0.18 5.79,0.84 c 0.84,0.68 0.9,1.41 0.2,2.17 c -3.24,0.64 -5.79,-0.4 -2.95,3.67 c 0.2,-0.64 0.3,-2.9 1.52,-2.1 c 1.17,3.13 2.62,6.13 4.35,9.02 c 1,1.7 2.46,2.75 4.37,3.14 c 1.4,1.15 -0.02,0.92 1.61,-0.02 c 5.5,-0.77 9.19,-2.99 14.45,0.54 c 0.74,1.86 -0.15,3.22 2.13,1.94 c -0.25,2.4 -0.85,4.7 -1.81,6.91 c -1.05,2.56 -3.19,8.21 1.57,8.11 c 0.97,0.42 1.99,0.62 3.04,0.58 c 0.42,0.13 0.84,0.27 1.26,0.4 c 0.91,1.58 11.09,2.68 11.54,4.53 c -0.43,5.61 -4.6,12.59 -6.47,18.05 c -0.11,0.52 0.01,0.99 0.36,1.4 c 6,2.83 12.09,5.39 18.27,7.67 c 0.43,2.14 -5.91,13.75 -7.28,16.26 c -0.58,1.57 -1.11,3.48 0.83,4.32 c 4.55,2.58 9.24,4.87 14.08,6.86 c 1.97,0.8 2.45,2.14 1.42,4.02 c -2.78,4.9 -5.57,9.8 -8.36,14.7 c -0.23,0.45 -0.29,0.93 -0.19,1.42 c 5.13,3.26 10.41,6.29 15.85,9.09 c 1.23,0.58 1.67,1.49 1.33,2.74 c -1.95,2.67 -10.95,14.81 -11.1,17.2 c 4.91,4.34 9.88,8.66 14.88,12.96 c 0.7,0.88 0.68,1.76 -0.06,2.63 c -4,3.95 -11.1,9.03 -13.91,13.67 c -0.11,0.49 -0.02,0.94 0.28,1.34 c 3.3,5.03 6.68,10.01 10.12,14.95 c 0.57,1.05 0.37,1.92 -0.59,2.62 c -5.25,3.11 -10.56,6.12 -15.94,9.03 c -0.94,0.66 -1.2,1.53 -0.77,2.61 c 2.14,4.7 4.58,12.64 7.25,16.71 c 0.53,1.1 0.28,1.91 -0.77,2.45 c -5.7,1.55 -11.35,3.23 -16.97,5.04 c -3.55,0.64 -2.51,2.79 -2.13,5.49 c 0.91,5.29 1.88,10.57 2.9,15.84 c 0.17,0.45 0.08,0.84 -0.26,1.17 c -6.84,1.1 -13.73,1.89 -20.65,2.38 c -0.18,0.14 -0.35,0.28 -0.53,0.43 c -0.69,4.41 0.29,17.54 -1.1,20.84 c -1.88,1.8 -19.29,-2.54 -21.53,-0.57 c -1.39,6.81 -2.99,13.57 -4.81,20.26 c -0.56,0.26 -1.14,0.26 -1.73,0.03 c -6.35,-1.96 -12.77,-3.6 -19.27,-4.94 c -1.25,0.65 -0.63,2.6 -1.3,3.69 c -2.12,4.85 -4.23,9.71 -6.32,14.58 c -1.04,0.73 -2.14,0.82 -3.3,0.26 c -4.56,-1.41 -13.08,-7.16 -17.16,-7.49 c -4.13,2.47 -7.41,13.29 -11.53,17.02 c -0.65,0.12 -1.24,-0.03 -1.76,-0.46 c -4.58,-3.28 -9.12,-6.6 -13.62,-9.97 c -1.52,-1.58 -2.96,-1.54 -4.34,0.1 c -3.89,4.05 -7.73,8.16 -11.52,12.32 c -0.95,0.91 -1.92,0.94 -2.92,0.09 c -2.38,-1.96 -11.65,-12.92 -13.43,-13.52 c -1.34,0.08 -2.52,0.56 -3.56,1.43 c -4.68,3.57 -9.45,6.99 -14.31,10.26 c -1.33,-0.37 -7.18,-10.72 -8.19,-12.54 c -1.08,-1.52 -2.2,-3.01 -3.35,-4.48 c -1.12,-0.7 -3.21,0.39 -4.31,0.76 c -4.97,2.63 -10.07,4.98 -15.29,7.02 c -0.59,-0.06 -1,-0.36 -1.23,-0.92 c -2.53,-5.9 -5.01,-11.82 -7.43,-17.76 c -0.18,-0.11 -0.36,-0.23 -0.54,-0.34 c -5.46,1.04 -10.83,2.43 -16.12,4.17 c -1.58,0.39 -3.16,0.43 -4.75,0.12 c -1.1,-3.15 -1.93,-6.38 -2.5,-9.67 c -1.04,-2.97 -0.71,-10.17 -4.58,-10.88 c -1.02,-0.55 -1.96,-1.21 -2.82,-1.96 c -1.62,-0.8 -7.46,0.02 -8.52,-1.48 c -2.79,0 -4.22,-1.38 -4.27,-4.16 c 0.34,-1.58 0.96,-3.05 1.85,-4.41 c 0.04,-1.18 0.12,-2.35 0.25,-3.52 c 3.44,-2.12 2.31,-7.43 1.66,-10.71 c -1.21,-0.73 -2.24,-1.66 -3.1,-2.76 c -0.83,-0.33 -1.67,-0.35 -2.53,-0.06 c -0.97,0.03 -1.94,0.11 -2.9,0.24 c -2.31,-1.29 -4.53,-2.69 -6.69,-4.22 c 0,-1.78 0,-3.54 0.01,-5.29 c 2.35,-0.48 1.54,-0.04 2.82,-2.14 c 0.45,-0.2 0.83,-0.48 1.15,-0.85 c 0.02,-1.13 0.17,-2.24 0.45,-3.31 c 1.39,-0.73 2.04,-0.35 1.8,-2.26 c 1.11,-1.1 1.58,-0.86 2.13,-3.03 c 0.84,-0.82 1.57,-1.7 2.19,-2.63 c -0.68,-1.05 -1.16,-2.2 -1.41,-3.44 c -0.97,-0.76 -1.99,-1.42 -3.09,-1.98 c -0.8,-1.79 -1.76,-3.51 -2.88,-5.15 c -2.47,-1.39 -4.4,-1.52 -5.67,-4.52 c -0.43,-1.75 0.95,-2.22 2.01,-3.1 c 0.42,-1.92 0.72,-1.81 2.42,-2.59 c 0.92,-1.06 1.85,-2.11 2.8,-3.13 c 0.9,-0.47 1.73,-1.02 2.49,-1.67 c 0.35,-0.99 0.09,-1.74 -0.78,-2.24 c 0.52,-0.5 0.98,-1.04 1.38,-1.64 c 1.66,0.2 0.93,-2.6 0.55,-3.38 c -1.26,-1.38 -2.36,-2.88 -3.29,-4.5 c -0.45,-0.41 -0.95,-0.72 -1.52,-0.93 c -0.99,-0.35 -1.32,-1.06 -0.97,-2.11 c 0.17,-1.44 -0.45,-2.14 -1.88,-2.08 c -0.27,-0.41 -0.6,-0.76 -0.98,-1.06 c -0.17,-1.15 0.63,-6.21 -0.85,-6.4 c 1.03,-0.86 2.23,-1.44 3.59,-1.73 c 1.55,0.3 4.41,-0.71 4.31,-2.64 c 0.93,-0.41 1.84,-0.85 2.74,-1.31 c 2.08,-0.23 4.05,-0.78 5.91,-1.64 c 0.19,-1.31 -0.16,-5.04 -1.96,-5.2 c -0.84,-1.45 -1.83,-2.79 -2.98,-4.04 c 0.26,-1.05 -0.08,-1.84 -1.01,-2.37 c -0.66,-0.72 -1.22,-1.51 -1.65,-2.37 c 0.53,0.02 0.83,-0.23 0.87,-0.78 c -1.7,-8.7 16.55,-7.71 17.5,-17.76 c -1.57,-2.46 -3.16,-4.93 -4.75,-7.41 c -1.61,-2.78 -1.65,-5.58 -0.11,-8.39 c 3.16,-4.41 10.44,-2.96 14,-6.66 c -0.14,-3.85 0.74,-5.82 -1.06,-9.77 c -1.59,-2.88 -3.42,-5.61 -5.47,-8.18 c -0.3,-0.4 -0.7,-0.56 -1.19,-0.45 c -0.11,-0.36 -0.22,-0.73 -0.33,-1.09 c 0.21,-0.94 0.44,-1.87 0.7,-2.79 c 2.49,-0.85 5.02,-1.56 7.59,-2.14 c 3.1,0.57 6.18,0.45 9.24,-0.37 c 0.64,-0.75 0.88,-1.62 0.7,-2.61 c 0.56,-0.63 0.87,-1.35 0.92,-2.17 c -0.83,-2.15 -1.55,-4.32 -2.19,-6.51 c 0.38,-0.49 0.63,-1.04 0.73,-1.65 c -0.5,-1.67 -0.78,-3.37 -0.85,-5.1 c 0.39,-4.38 2.67,-6 6.85,-4.86 c 1.4,-1.82 2.29,-1.24 4.2,-0.72 c 1.64,-0.48 3.32,-0.76 5.04,-0.82 c 0.88,-1.1 1.92,-2.07 3.12,-2.9 c 0.27,-2.2 0.35,-4.43 0.24,-6.67 c -0.82,-0.93 -1.51,-1.96 -2.07,-3.1 c -1.17,-1.66 -0.16,-7.73 0.24,-9.78 c 0.39,-0.44 0.89,-0.62 1.48,-0.54 c 4.86,0.06 9.71,-0.01 14.57,-0.22 c 1.45,-1.25 2.9,0.67 3.73,-0.49 c -0.38,-3.68 -0.29,-7.36 0.27,-11.04 c 1.58,-5.71 3.39,-8.19 9.7,-6.86 c 1.22,0.36 2.43,0.74 3.61,1.16 c 1.35,-0.32 2.73,-0.64 4.13,-0.95 c 0.92,-0.13 1.83,-0.14 2.75,-0.04 c 1.3,-2.96 2.65,-5.9 4.05,-8.84 c 0.93,-1.58 2.04,-2.99 3.34,-4.26 c -0.87,-0.35 -1.76,-0.69 -2.66,-1.02 c -0.48,-0.86 -1.18,-1.43 -2.11,-1.7 c -0.22,-0.96 -0.09,-1.86 0.39,-2.71 c 0.74,-0.73 1.51,-1.43 2.31,-2.12 c 0.82,-0.51 3.2,1.15 3.34,-0.08 c 0.56,0.05 0.94,0.33 1.16,0.83 c -0.22,1.48 1.51,1.15 2.22,0.53 c 0.66,0.31 1.3,0.67 1.91,1.07 c -1.17,6.02 8,4.99 11.28,3.78 c 0.62,-1 0.8,-2.06 0.54,-3.18 c 0.69,0.02 1.29,-0.2 1.79,-0.66 c 1.17,-2.11 2.39,-4.2 3.65,-6.27 c 1.25,-0.83 2.59,-3.65 4.09,-3.66 c 1.08,0.72 2.12,1.51 3.11,2.37 c 0.91,0.05 1.81,0.14 2.71,0.26 c 0.8,1.2 1.71,2.31 2.72,3.34 c 2.46,-0.15 1.86,0.21 2.84,2.21 c 1.24,1.14 2.67,1.5 4.3,1.08 c 0.72,-0.62 1.5,-1.14 2.33,-1.55 c 0.8,-1.51 1.73,-2.93 2.78,-4.25 c 2.63,-0.02 1.64,-3.3 1.51,-4.96 c 1.5,0.16 3.01,0.13 4.5,-0.09 c 0.53,-0.47 1,-0.98 1.43,-1.54 c 1.54,-1.25 3.22,1.32 4.34,2.1 c 1.44,3.38 1.15,4.38 5.08,4.99 c 0.51,0.87 0.98,1.77 1.41,2.7 c 0.78,0.27 1.57,0.29 2.36,0.06 Z"/></g>
<g><path fill="#7b9d39" fill-opacity="0.773" d="M 64.98,254.07 c 1.43,-0.06 2.05,0.64 1.88,2.08 c -0.92,-0.41 -1.54,-1.1 -1.88,-2.08 Z"/></g>
<g><path fill="#869c51" fill-opacity="0.851" d="M 63.15,246.61 c 1.48,0.19 0.68,5.25 0.85,6.4 c -1.46,-1.67 -5.26,-5.59 -0.85,-6.4 Z"/></g>
<g><path fill="#7a9b3a" fill-opacity="0.698" d="M 77.74,234.09 c 1.8,0.16 2.15,3.89 1.96,5.2 c -1.86,0.86 -3.83,1.41 -5.91,1.64 c 1.27,-1.07 2.67,-1.93 4.21,-2.55 c 0.45,-1.45 0.36,-2.87 -0.26,-4.29 Z"/></g>
<g><path fill="#58693d" fill-opacity="0.431" d="M 92.26,162.03 c -0.26,0.92 -0.49,1.85 -0.7,2.79 c -0.19,0.37 -0.43,0.68 -0.72,0.94 c -0.52,-1.77 -0.84,-3.33 1.42,-3.73 Z"/></g>
<g><path fill="#89a54e" fill-opacity="0.816" d="M 176.08,73.75 c 0.75,0.12 1.49,0.3 2.22,0.53 c -0.71,0.62 -2.44,0.95 -2.22,-0.53 Z"/></g>
<g><path fill="#778f42" fill-opacity="0.588" d="M 174.92,72.92 c -0.14,1.23 -2.52,-0.43 -3.34,0.08 c -0.8,0.69 -1.57,1.39 -2.31,2.12 c -0.21,-1.26 0.1,-2.34 0.91,-3.26 c 1.37,-0.06 4.1,-0.44 4.74,1.06 Z"/></g>
<g><path fill="#638c0b" stroke="#638c0b" stroke-width="0.5" d="M 320.01,112.09 c 5.18,-0.37 10.37,-0.36 15.55,0.04 c 0.52,-0.07 0.95,0.08 1.28,0.46 c -0.37,2.95 -0.64,5.91 -0.82,8.89 c -0.1,2.2 -0.1,4.4 0,6.6 c -0.48,2.04 0.19,3.5 2.01,4.36 c 5.54,0.88 11.03,2 16.48,3.35 c 0.61,0.02 1.06,0.29 1.36,0.81 c 0.48,3.59 -3.56,13.89 -4.55,17.97 c -0.24,4.62 5.71,2.49 5.39,4.28 c -0.01,0.52 0.21,0.91 0.66,1.19 c 1.88,1.46 3.78,2.93 5.69,4.39 c 0.91,0.93 3.79,1.81 4.11,2.94 c -1.86,3.33 -3.57,6.73 -5.16,10.2 c -1.59,3.62 -0.69,6.39 2.69,8.3 c 3.57,1.4 7.1,2.86 10.61,4.37 c 1.82,1.38 3.68,2.47 2.5,5.07 c -3.03,4.7 -6.8,9.27 -4.66,15.23 c -0.12,0.33 -0.29,0.63 -0.5,0.9 c 0.59,0.48 1.08,1.05 1.47,1.7 c 4.95,1.39 9.17,3.96 12.66,7.71 c 0.69,1.37 1.58,2.6 2.66,3.68 c -0.29,0.55 -0.58,1.11 -0.86,1.66 c -1.18,-1.42 -2.01,-1.28 -2.48,0.43 c -1.08,1.54 -1.96,1.47 -2.65,-0.22 c -1.69,3.22 -2.69,6.63 -3,10.24 c -0.22,0.32 -0.48,0.61 -0.79,0.85 c 0.54,0.69 0.86,1.48 0.96,2.36 c 1.81,0.95 3.67,-0.68 3.84,2.07 c 2.08,0.87 4.09,1.9 6.02,3.1 c 1.64,0.96 3.22,1.98 4.73,3.05 c 1.5,3.02 -3.6,7.54 -2.08,11.11 c -1.02,2.23 -4.77,5.37 -3.65,7.98 c 3.79,3.62 7.72,7.09 11.77,10.42 c -2.27,0.67 -0.73,5.99 -0.86,7.69 c -3.67,3.15 -7.25,6.38 -10.77,9.7 c -0.35,0.87 -0.33,1.74 0.07,2.61 c -0.5,0.13 -0.94,0.04 -1.34,-0.28 c -0.13,-1.09 -0.44,-2.12 -0.93,-3.08 c -0.23,1.89 -0.05,3.73 0.52,5.52 c 1.5,3.73 7.5,8.18 7.28,12.13 c 0.08,2.27 -0.99,3.47 -3.19,3.6 c -0.82,1.46 -0.56,1.71 -2.34,2.66 c -0.41,0.82 -0.53,1.7 -0.38,2.62 c -0.33,0.19 -0.67,0.37 -1.01,0.55 c -0.61,-2.57 -4.59,-1.16 -6.39,-0.71 c -1.05,0.6 -1,5.76 -1.5,7.04 c 0.82,2.58 2.68,3.67 4.07,5.83 c 0.05,1.64 0,3.28 -0.12,4.92 c 0.8,0.84 2.1,0.38 2.35,1.85 c 0.24,3.2 -0.97,6.31 -4.89,5.31 c -2.55,0.62 -8.71,2.33 -11.29,3.95 c -0.8,-0.15 -1.55,-0.1 -2.25,0.16 c 0.04,3.42 0.04,6.84 -0.01,10.26 c 0.21,5.24 2.16,10.1 -5.13,11.92 c -3.66,0.71 -7.36,1.17 -11.09,1.39 c -3.01,1.19 -3.48,2.12 -4.17,5.3 c -0.36,3.64 -0.54,7.3 -0.53,10.96 c -0.68,1.36 -0.11,4.45 -1.53,5.07 c -1.74,-0.15 -3.5,-0.24 -5.28,-0.27 c -4.66,-1.13 -12.71,-3.4 -14.1,3.37 c -1.23,4.9 -3,11.57 -6.9,14.97 c -5.03,-0.83 -10.08,-3.03 -15.2,-3.08 c -0.36,-0.23 -0.66,-0.52 -0.9,-0.87 c -1.16,1.19 -1.94,0.51 -2.7,2.32 c -3.4,5.24 -3.31,17.05 -12.2,14.63 c -4,-1.6 -8,-3.17 -12.01,-4.69 c -1.3,-0.34 -1.77,0.14 -1.39,1.44 c -2.32,2.35 -8.03,13.18 -10.64,16.64 c -1.15,1.85 -3.12,0.1 -4.41,-0.54 c -4.14,-3.21 -8.21,-6.5 -12.22,-9.88 c -0.86,-0.63 -1.79,-0.76 -2.79,-0.38 c -0.89,-1.01 -1.77,-1.05 -2.65,-0.1 c -3.04,0.43 -2.23,0.37 -2.48,3.34 c -0.18,0.18 -0.36,0.37 -0.54,0.55 c -3.71,-0.12 -5.53,2.56 -6.2,5.86 c -1.14,0.81 -2.27,-0.01 -3.48,-0.17 c -1.61,-0.56 -3.14,-1.26 -4.61,-2.07 c -0.6,-0.84 -1.09,-1.75 -1.48,-2.74 c -1.26,-1.44 -2.51,-2.87 -3.74,-4.28 c -0.83,-0.41 -1.61,-0.88 -2.35,-1.44 c -2.52,-1.02 -4.92,-0.79 -7.18,0.7 c -1.58,0.73 -2.33,1.95 -2.26,3.64 c -0.75,0.49 -1.58,0.82 -2.49,1 c -3.49,3.34 -7.32,3.92 -10.85,0.13 c -1.03,-1.7 -1.98,-3.43 -2.86,-5.21 c 0.04,-1.16 -0.47,-1.93 -1.54,-2.3 c -0.31,-1.03 -0.7,-2.02 -1.18,-2.97 c -1.77,-1.94 -3.9,-2.45 -6.38,-1.52 c -3.14,1.9 -6.35,3.66 -9.64,5.29 c -1.84,0.97 -3.8,1.44 -5.87,1.4 c -0.22,-0.18 -0.43,-0.36 -0.65,-0.54 c -0.56,-3.89 -2.14,-7.31 -4.74,-10.26 c -0.41,-0.31 -0.87,-0.42 -1.38,-0.32 c -0.35,-0.67 -0.68,-1.34 -1,-2.02 c 3.23,-4.3 -7.64,-5.66 -10.04,-4.2 c -1.34,0.81 -2.64,1.64 -3.92,2.48 c -2.42,-0.93 -4.91,-1.66 -7.47,-2.18 c -0.49,-0.72 -0.7,-1.53 -0.62,-2.44 c -2.52,-1.65 -0.4,-6.25 0.28,-8.52 c 0.43,-1.64 -1.69,-2.36 -2.85,-2.72 c -0.48,-0.58 -0.84,-1.25 -1.06,-1.99 c -1.05,-0.47 -4.14,-3.02 -5.18,-2.43 c -1.07,1.12 -0.99,2.93 -3.12,2.64 c -4.31,-0.33 -8.62,-0.61 -12.93,-0.84 c -0.46,-0.38 -0.63,-0.87 -0.51,-1.46 c 0.13,-6.24 0.54,-11.71 -0.75,-17.66 c -0.48,-0.43 -0.97,-0.84 -1.49,-1.24 c -1.26,-0.25 -2.4,-0.76 -3.42,-1.52 c -2.38,0.2 -4.75,0.39 -7.1,0.59 c -0.62,-0.92 -0.93,-1.94 -0.93,-3.06 c 1.59,0.31 3.17,0.27 4.75,-0.12 c 5.29,-1.74 10.66,-3.13 16.12,-4.17 c 0.18,0.11 0.36,0.23 0.54,0.34 c 2.42,5.94 4.9,11.86 7.43,17.76 c 0.23,0.56 0.64,0.86 1.23,0.92 c 5.22,-2.04 10.32,-4.39 15.29,-7.02 c 1.1,-0.37 3.19,-1.46 4.31,-0.76 c 1.15,1.47 2.27,2.96 3.35,4.48 c 1.01,1.82 6.86,12.17 8.19,12.54 c 4.86,-3.27 9.63,-6.69 14.31,-10.26 c 1.04,-0.87 2.22,-1.35 3.56,-1.43 c 1.78,0.6 11.05,11.56 13.43,13.52 c 1,0.85 1.97,0.82 2.92,-0.09 c 3.79,-4.16 7.63,-8.27 11.52,-12.32 c 1.38,-1.64 2.82,-1.68 4.34,-0.1 c 4.5,3.37 9.04,6.69 13.62,9.97 c 0.52,0.43 1.11,0.58 1.76,0.46 c 4.12,-3.73 7.4,-14.55 11.53,-17.02 c 4.08,0.33 12.6,6.08 17.16,7.49 c 1.16,0.56 2.26,0.47 3.3,-0.26 c 2.09,-4.87 4.2,-9.73 6.32,-14.58 c 0.67,-1.09 0.05,-3.04 1.3,-3.69 c 6.5,1.34 12.92,2.98 19.27,4.94 c 0.59,0.23 1.17,0.23 1.73,-0.03 c 1.82,-6.69 3.42,-13.45 4.81,-20.26 c 2.24,-1.97 19.65,2.37 21.53,0.57 c 1.39,-3.3 0.41,-16.43 1.1,-20.84 c 0.18,-0.15 0.35,-0.29 0.53,-0.43 c 6.92,-0.49 13.81,-1.28 20.65,-2.38 c 0.34,-0.33 0.43,-0.72 0.26,-1.17 c -1.02,-5.27 -1.99,-10.55 -2.9,-15.84 c -0.38,-2.7 -1.42,-4.85 2.13,-5.49 c 5.62,-1.81 11.27,-3.49 16.97,-5.04 c 1.05,-0.54 1.3,-1.35 0.77,-2.45 c -2.67,-4.07 -5.11,-12.01 -7.25,-16.71 c -0.43,-1.08 -0.17,-1.95 0.77,-2.61 c 5.38,-2.91 10.69,-5.92 15.94,-9.03 c 0.96,-0.7 1.16,-1.57 0.59,-2.62 c -3.44,-4.94 -6.82,-9.92 -10.12,-14.95 c -0.3,-0.4 -0.39,-0.85 -0.28,-1.34 c 2.81,-4.64 9.91,-9.72 13.91,-13.67 c 0.74,-0.87 0.76,-1.75 0.06,-2.63 c -5,-4.3 -9.97,-8.62 -14.88,-12.96 c 0.15,-2.39 9.15,-14.53 11.1,-17.2 c 0.34,-1.25 -0.1,-2.16 -1.33,-2.74 c -5.44,-2.8 -10.72,-5.83 -15.85,-9.09 c -0.1,-0.49 -0.04,-0.97 0.19,-1.42 c 2.79,-4.9 5.58,-9.8 8.36,-14.7 c 1.03,-1.88 0.55,-3.22 -1.42,-4.02 c -4.84,-1.99 -9.53,-4.28 -14.08,-6.86 c -1.94,-0.84 -1.41,-2.75 -0.83,-4.32 c 1.37,-2.51 7.71,-14.12 7.28,-16.26 c -6.18,-2.28 -12.27,-4.84 -18.27,-7.67 c -0.35,-0.41 -0.47,-0.88 -0.36,-1.4 c 1.87,-5.46 6.04,-12.44 6.47,-18.05 c -0.45,-1.85 -10.63,-2.95 -11.54,-4.53 Z"/></g>
<g><path fill="#61722c" fill-opacity="0.898" d="M 401.25,277.58 c 1.02,0.92 3.36,2.19 2.7,3.87 c -0.87,1.58 -2.06,2.85 -3.56,3.82 c 0.13,-1.7 -1.41,-7.02 0.86,-7.69 Z"/></g>
<g><path fill="#546532" fill-opacity="0.737" d="M 318.32,109.75 c 1.03,0.31 2.09,0.47 3.18,0.46 c 4.99,-0.01 9.98,0.01 14.97,0.06 c 3.33,0.17 2.82,3.18 1.61,5.33 c 0.09,1.76 -0.19,3.46 -0.86,5.09 c -0.54,1.66 0.63,6.64 -1.2,7.39 c -0.1,-2.2 -0.1,-4.4 0,-6.6 c 0.18,-2.98 0.45,-5.94 0.82,-8.89 c -0.33,-0.38 -0.76,-0.53 -1.28,-0.46 c -5.18,-0.4 -10.37,-0.41 -15.55,-0.04 c -0.42,-0.13 -0.84,-0.27 -1.26,-0.4 c -0.33,-0.6 -0.48,-1.25 -0.43,-1.94 Z"/></g>
<g><path fill="#634930" d="M 239.08,21.07 c 0.74,0.09 1.16,0.49 1.26,1.21 c -4.79,8.87 -3.48,27.44 -1.9,37.17 c 0.62,1.06 1.32,2.07 2.09,3.01 c -0.09,0.64 -0.38,1.17 -0.86,1.6 c -1.69,0.38 -3.37,-2.94 -4.22,-4.09 c -0.93,-1.86 -1.47,-3.83 -1.6,-5.91 c 0.98,-8.72 -0.9,-21.29 1.12,-29.13 c 1.71,-0.92 3.08,-2.21 4.11,-3.86 Z"/></g>
<g><path fill="#544841" fill-opacity="0.953" stroke="#544841" stroke-width="0.5" stroke-opacity="0.953" d="M 242.78,69.79 c -1.11,-0.7 -2.07,-1.55 -2.88,-2.58 c 0.35,-1.08 0.28,-2.13 -0.23,-3.15 c 0.48,-0.43 0.77,-0.96 0.86,-1.6 c -0.77,-0.94 -1.47,-1.95 -2.09,-3.01 c -1.58,-9.73 -2.89,-28.3 1.9,-37.17 c -0.1,-0.72 -0.52,-1.12 -1.26,-1.21 c 1.1,-0.9 1.31,-1.94 0.63,-3.12 c 0.83,-2.02 2.92,0.26 2.86,1.74 c 0.04,16.7 0.11,33.4 0.21,50.1 Z"/></g>
<g><path fill="#273505" fill-opacity="0.161" d="M 103.85,375.07 c 2.04,0.45 7.19,-0.49 6.26,3.13 c -0.03,6.14 -0.2,12.28 -0.49,18.41 c -0.52,-6.39 -0.71,-12.81 -0.57,-19.24 c -1.43,-1.49 -4.98,0.21 -5.2,-2.3 Z"/></g>
<g><path fill="#304908" fill-opacity="0.243" d="M 85.97,350.01 c 1.39,0 2.76,0.13 4.13,0.38 c 2.48,0.98 2.11,4.61 1.11,6.55 c -0.19,-0.02 -0.38,-0.03 -0.58,-0.05 c 0.05,-1.16 0.11,-2.34 0.17,-3.54 c -0.57,-2.03 -2.26,-1.5 -3.88,-2.01 c -0.6,-0.24 -0.92,-0.68 -0.95,-1.33 Z"/></g>
<g><path fill="#496118" fill-opacity="0.4" d="M 60.92,285.29 c 1.22,0.23 4.73,3.68 4.9,4.79 c -2.2,-1 -3.83,-2.6 -4.9,-4.79 Z"/></g>
<g><path fill="#364b0e" fill-opacity="0.231" d="M 96.04,183.85 c -1.49,0.67 -3.03,1.19 -4.61,1.58 c -0.19,-0.83 0.13,-1.36 0.96,-1.61 c 0.83,-0.21 3.4,-1.49 3.65,0.03 Z"/></g>
<g><path fill="#426108" fill-opacity="0.392" d="M 86.75,206.82 c 1.2,1.24 1.18,2.42 -0.05,3.53 c -0.3,-0.22 -0.48,-0.51 -0.52,-0.88 c -0.09,-0.98 0.1,-1.86 0.57,-2.65 Z"/></g>
<g><path fill="#445f16" fill-opacity="0.337" d="M 77.5,323.78 c 2.44,1.79 0.5,4.22 -0.24,6.4 c -0.76,-1.73 0.14,-4.5 0.24,-6.4 Z"/></g>
<g><path fill="#436206" fill-opacity="0.357" d="M 70.59,221.77 c 0.54,0.73 0.95,1.52 1.24,2.39 c -1.56,-0.19 -1.97,-0.98 -1.24,-2.39 Z"/></g>
<g><path fill="#425913" fill-opacity="0.318" d="M 81.96,212.9 c -0.66,0.38 -1.35,0.73 -2.06,1.02 c -0.1,-1.16 0.43,-1.76 1.58,-1.8 c 0.42,0.1 0.58,0.36 0.48,0.78 Z"/></g>
<g><path fill="#4d6219" fill-opacity="0.561" d="M 276.97,422.31 c 0.6,-0.1 0.91,0.16 0.95,0.75 c -0.48,-0.05 -0.8,-0.3 -0.95,-0.75 Z"/></g>
</svg>
